# xmcd CD database file
#
# Track frame offsets:
#	150
#	5655
#	15005
#	16562
#	44332
#	45637
#	73887
#	75355
#	99900
#	101840
#	132972
#	134265
#	156720
#	157027
#	166725
#	168002
#	195532
#	196505
#	225007
#	225605
#	260020
#	260817
#	290470
#	291525
#	304870
#	307867
#
# Disc length: 4342 seconds
#
# Revision: 0
# Processed by: cddbd v1.5.1PL2 Copyright (c) Steve Scherf et al.
# Submitted via: CDex 1.51
#
DISCID=4e10f41a
DTITLE=Vários Artistas - Show de Cururú - Os Bam Bam Bans do Repente
DYEAR=2004
DGENRE=Cururú
TTITLE0=Abertura
TTITLE1=Homenagem à Mãe (Poema) =Marcha Lenta
TTITLE2=Apresentação
TTITLE3=João Mazeiro
TTITLE4=Apresentação
TTITLE5=Zé Antonio
TTITLE6=Apresentação
TTITLE7=Moacir Siqueira
TTITLE8=Apresentação
TTITLE9=Manezinho Moreira
TTITLE10=Apresentação
TTITLE11=Pai Desprezado (Poema) =Marcha Lenta
TTITLE12=Apresentação
TTITLE13=Lembrança do Meu Pai
TTITLE14=Apresentação
TTITLE15=João Mazeiro
TTITLE16=Apresentação
TTITLE17=Zé Antonio
TTITLE18=Apresentação
TTITLE19=Moacir Siqueira
TTITLE20=Apresentação
TTITLE21=Manezinho Moreira
TTITLE22=Apresentação
TTITLE23=A Vida de Uma Árvore (Poema) =Marcha Lenta
TTITLE24=Apresentação
TTITLE25=Hino de Piracicaba (Solo de Viola) =Toninho Paes e Noel
EXTD=YEAR: 2004
EXTT0=
EXTT1=
EXTT2=
EXTT3=
EXTT4=
EXTT5=
EXTT6=
EXTT7=
EXTT8=
EXTT9=
EXTT10=
EXTT11=
EXTT12=
EXTT13=
EXTT14=
EXTT15=
EXTT16=
EXTT17=
EXTT18=
EXTT19=
EXTT20=
EXTT21=
EXTT22=
EXTT23=
EXTT24=
EXTT25=
PLAYORDER=
